<svg xmlns="http://www.w3.org/2000/svg" width="64" height="64" viewBox="0 0 64 64" role="img" aria-label="SkinSage AI icon">
  <defs>
    <linearGradient id="ss-bg" x1="0" y1="0" x2="1" y2="1">
      <stop offset="0%" stop-color="#0d9488"/>
      <stop offset="100%" stop-color="#0284c7"/>
    </linearGradient>
    <linearGradient id="ss-gold" x1="0" y1="0" x2="1" y2="1">
      <stop offset="0%" stop-color="#f59e0b"/>
      <stop offset="100%" stop-color="#fbbf24"/>
    </linearGradient>
  </defs>

  <rect x="4" y="4" width="56" height="56" rx="14" fill="#071312"/>
  <rect x="7" y="7" width="50" height="50" rx="11" fill="url(#ss-bg)" opacity="0.92"/>

  <path d="M32 14c-7.9 5.2-14 5-14 5v12.8c0 10.2 7.2 17.8 14 20.2 6.8-2.4 14-10 14-20.2V19s-6.1.2-14-5z"
        fill="#052423" fill-opacity="0.45"/>

  <path d="M24 28.8c0-4.2 3.4-7.1 8-7.1 3.4 0 6.2 1.6 7.8 4.2l-4.3 2.2c-.8-1.3-2-2.1-3.6-2.1-1.9 0-3.1.9-3.1 2.2 0 1.5 1.4 2.1 4.2 2.7 4.2.9 7.3 2.4 7.3 6.5 0 4.4-3.6 7.1-8.7 7.1-4.2 0-7.4-1.8-9-5.2l4.4-2.2c.9 1.8 2.4 2.9 4.7 2.9 2.1 0 3.4-.8 3.4-2.2 0-1.3-1-2-3.9-2.6-4.5-1-7.2-2.5-7.2-6.4z"
        fill="white"/>

  <circle cx="48.5" cy="17.5" r="4.2" fill="url(#ss-gold)"/>
</svg>
